<svg xmlns="http://www.w3.org/2000/svg" viewBox="0 0 512 512" class="svgPickup">
	<path d="M503.9 224.3l-82.5-20.6 -61.9-61.9c-2-2-4.7-3.1-7.5-3.1H213.3c-4.8 0-9 3.2-10.3 7.8 -0.3 1-6.6 23.5-10.1 56.2h-0.1H10.7C4.8 202.7 0 207.4 0 213.3v106.7c0 5.9 4.8 10.7 10.7 10.7h54.4c5 24.3 26.5 42.7 52.3 42.7 25.8 0 47.3-18.4 52.3-42.7h97.1 0c0 0 0 0 0 0h97.1c4.9 24.3 26.5 42.7 52.2 42.7 25.8 0 47.3-18.4 52.3-42.7h33.1c5.9 0 10.7-4.8 10.7-10.7v-85.3C512 229.8 508.7 225.5 503.9 224.3zM21.3 224h14.7l-10.7 21.3h-4.1V224zM117.3 352c-17.6 0-32-14.4-32-32 0-17.6 14.4-32 32-32 17.6 0 32 14.4 32 32C149.3 337.6 135 352 117.3 352zM256 309.3H169.6c-5-24.3-26.5-42.7-52.3-42.7 -25.8 0-47.3 18.4-52.3 42.7H21.3v-42.7h10.7c4 0 7.7-2.3 9.5-5.9l18.4-36.8h132.9 9.9 53.3V309.3zM256 202.7h-41.6c2.1-18.9 5.2-34.1 7.2-42.7h34.3V202.7zM277.3 160h70.2l42.7 42.7H277.3V160zM416 352c-17.6 0-32-14.4-32-32 0-17.6 14.4-32 32-32 17.6 0 32 14.4 32 32C448 337.6 433.6 352 416 352zM490.6 309.3h-22.4c-4.9-24.3-26.5-42.7-52.2-42.7 -25.7 0-47.3 18.4-52.2 42.7h-86.4v-85.3h137.3l33.3 8.3v23.7c0 5.9 4.8 10.7 10.7 10.7h32V309.3zM490.6 245.3h0 -21.3v-7.7l21.3 5.3V245.3z" class="svgPickup"/>
	<path d="M109.8 312.5c-4.2 4.2-4.2 10.9 0 15.1s10.9 4.2 15.1 0c4.2-4.2 4.2-10.9 0-15.1C120.7 308.3 114 308.3 109.8 312.5z" class="svgPickup"/>
	<path d="M408.5 312.5c-4.2 4.2-4.2 10.9 0 15.1 4.2 4.2 10.9 4.2 15.1 0s4.2-10.9 0-15.1C419.4 308.3 412.6 308.3 408.5 312.5z" class="svgPickup"/>
	<path d="M320 234.7H298.7c-5.9 0-10.7 4.8-10.7 10.7 0 5.9 4.8 10.7 10.7 10.7h21.3c5.9 0 10.7-4.8 10.7-10.7C330.6 239.4 325.9 234.7 320 234.7z" class="svgPickup"/>
</svg>